<svg width="15" height="20" viewBox="0 0 15 20" xmlns="http://www.w3.org/2000/svg"><path d="M10.961 5.178c-1.459-.12-2.681.84-3.363.84-.692 0-1.762-.83-2.89-.8-1.487.02-2.851.91-3.619 2.32-1.544 2.83-.397 7.01 1.109 9.31.739 1.12 1.61 2.38 2.766 2.34 1.109-.05 1.525-.76 2.87-.76 1.337 0 1.715.76 2.89.73 1.194-.02 1.952-1.14 2.681-2.27.843-1.3 1.194-2.56 1.213-2.63-.029-.01-2.321-.94-2.35-3.74-.019-2.34 1.81-3.46 1.895-3.51-1.042-1.61-2.643-1.79-3.202-1.83zm-3.496-.21c.976.08 1.98-.53 2.596-1.31.616-.78 1.023-1.87.91-2.95-.882.04-1.943.62-2.577 1.4-.569.69-1.061 1.8-.929 2.86z" fill="#fff"/></svg>
