<?xml version="1.0" encoding="UTF-8"?>
<svg width="24px" height="24px" viewBox="0 0 24 24" version="1.1" xmlns="http://www.w3.org/2000/svg" xmlns:xlink="http://www.w3.org/1999/xlink">
    <title>Icons/Ambassadors/Australian Dollar</title>
    <g id="Icons/Ambassadors/Australian-Dollar" stroke="none" stroke-width="1" fill="none" fill-rule="evenodd">
        <path d="M19.0933333,5.032 L19.0933333,6.61366667 C20.6027778,6.982 21.3611111,8.12311111 21.4116667,9.36533333 L21.4116667,9.36533333 L19.8155556,9.36533333 C19.7722222,8.46255556 19.2955556,7.84866667 18.01,7.84866667 C16.7894444,7.84866667 16.06,8.39755556 16.06,9.18477778 C16.06,9.87088889 16.5872222,10.3114444 18.2266667,10.7375556 C19.8661111,11.1636667 21.6211111,11.8642222 21.6211111,13.9153333 C21.6211111,15.3958889 20.5016667,16.212 19.0933333,16.4792222 L19.0933333,16.4792222 L19.0933333,18.032 L16.9266667,18.032 L16.9266667,16.4647778 C15.54,16.1686667 14.3555556,15.2803333 14.2688889,13.6986667 L14.2688889,13.6986667 L15.8577778,13.6986667 C15.9372222,14.5508889 16.5222222,15.2153333 18.01,15.2153333 C19.6061111,15.2153333 19.96,14.4208889 19.96,13.9225556 C19.96,13.2508889 19.5988889,12.6153333 17.7933333,12.182 C15.7783333,11.6981111 14.3988889,10.8675556 14.3988889,9.19922222 C14.3988889,7.80533333 15.5255556,6.89533333 16.9266667,6.592 L16.9266667,6.592 L16.9266667,5.032 L19.0933333,5.032 Z M9.552,5 L14.088,18.032 L12.27,18.032 L10.956,14.162 L5.952,14.162 L4.674,18.032 L3,18.032 L7.392,5 L9.552,5 Z M8.454,6.512 L8.436,6.512 L6.348,12.74 L10.542,12.74 L8.454,6.512 Z" id="AUD" fill="#FAFAFA"></path>
    </g>
</svg>