<svg xmlns="http://www.w3.org/2000/svg" viewBox="0 0 24 24"><path d="M6.837 1.246a1.058 1.058 0 011.496.75c.1.517.505 1.719 2.079 1.719 1.1 0 1.623-.593 1.867-1.092a1.06 1.06 0 012.009.494c-.02.808.204 1.533.602 1.94.527.54 1.439.576 2.654.141a1.058 1.058 0 011.19 1.646c-.462.588-.505 1.453-.113 2.255.466.955 1.4 1.524 2.497 1.524.473 0 .89-.102 1.278-.31a1.057 1.057 0 011.56.853l.009.132c.018.244.035.488.035.736C24 18.633 18.617 24 12 24S0 18.633 0 12.034C0 7.461 2.683 3.225 6.837 1.246zm8.02 16.468a1.714 1.714 0 10-3.428 0 1.714 1.714 0 003.428 0zM9.143 15.43a1.714 1.714 0 10-3.429 0 1.714 1.714 0 003.429 0zm4.571-4.572a1.714 1.714 0 10-3.428 0 1.714 1.714 0 003.428 0zM8 8.571a1.714 1.714 0 10-3.429 0 1.714 1.714 0 003.429 0zm12.571-1.714a1.143 1.143 0 112.286 0 1.143 1.143 0 01-2.286 0zm0-4.571a1.143 1.143 0 112.287 0 1.143 1.143 0 01-2.287 0zm-5.714-.57a1.715 1.715 0 113.43-.002 1.715 1.715 0 01-3.43.001z" fill="#fafafa"/></svg>
