<?xml version="1.0" encoding="utf-8"?>
<svg version="1.1" xmlns:xlink="http://www.w3.org/1999/xlink" width="20px" height="20px" xmlns="http://www.w3.org/2000/svg">
  <g transform="matrix(1 0 0 1 -200 -225 )">
    <path d="M 20 10  C 20 4.477  15.523 0  10 0  C 4.477 0  0 4.477  0 10  C 0 14.991  3.657 19.128  8.438 19.879  L 8.438 12.89  L 5.898 12.89  L 5.898 10  L 8.438 10  L 8.438 7.797  C 8.438 5.291  9.93 3.907  12.215 3.907  C 13.309 3.907  14.453 4.102  14.453 4.102  L 14.453 6.562  L 13.193 6.562  C 11.95 6.562  11.563 7.333  11.563 8.124  L 11.563 10  L 14.336 10  L 13.893 12.89  L 11.563 12.89  L 11.563 19.879  C 16.343 19.129  20 14.99  20 10  Z " fill-rule="nonzero" fill="#ffffff" stroke="none" transform="matrix(1 0 0 1 200 225 )" />
  </g>
</svg>