<?xml version="1.0" encoding="utf-8"?>
<svg version="1.1" xmlns:xlink="http://www.w3.org/1999/xlink" width="14px" height="15px" xmlns="http://www.w3.org/2000/svg">
  <g transform="matrix(1 0 0 1 -144 -89 )">
    <path d="M 2.21052631578947 14.25  L 2.21052631578947 12  L 3.68421052631579 12  L 3.68421052631579 13.5  L 12.5263157894737 13.5  L 12.5263157894737 1.5  L 3.68421052631579 1.5  L 3.68421052631579 3  L 2.21052631578947 3  L 2.21052631578947 0.75  C 2.21052631578947 0.335786437626905  2.54042176328257 0  2.94736842105263 0  L 13.2631578947368 0  C 13.6701045525069 0  14 0.335786437626905  14 0.75  L 14 14.25  C 14 14.6642135623731  13.6701045525069 15  13.2631578947368 15  L 2.94736842105263 15  C 2.54042176328257 15  2.21052631578947 14.6642135623731  2.21052631578947 14.25  Z M 3.68421052631579 4.5  L 3.68421052631579 6.75  L 8.84210526315789 6.75  L 8.84210526315789 8.25  L 3.68421052631579 8.25  L 3.68421052631579 10.5  L 0 7.5  L 3.68421052631579 4.5  Z " fill-rule="nonzero" fill="#2776ff" stroke="none" transform="matrix(1 0 0 1 144 89 )" />
  </g>
</svg>