<?xml version="1.0" encoding="UTF-8"?>
<svg width="24px" height="24px" viewBox="0 0 24 24" version="1.1" xmlns="http://www.w3.org/2000/svg" xmlns:xlink="http://www.w3.org/1999/xlink">
    <title>Icons/Ambassadors/Pound</title>
    <g id="Symbols" stroke="none" stroke-width="1" fill="none" fill-rule="evenodd">
        <g id="Icons/Ambassadors/Pound" fill="#FAFAFA">
            <path d="M9.84725492,18.537883 C11.3723717,17.0610877 12.3781867,15.841654 12.3272313,14.6891761 C12.310837,14.3108755 12.1331578,13.8572495 11.7684944,13.2625977 L11.5314411,12.8759275 L16.5357029,12.8759275 L16.5357029,11.4229852 L10.5043578,11.4229852 L10.4237154,11.305394 C10.0426577,10.7475679 9.58095765,10.032814 9.39087191,9.45113494 C9.30225385,9.18080063 9.2544001,8.87824381 9.24908302,8.55183396 C9.23800576,7.8659548 9.41258334,7.18342343 9.74135634,6.63020058 C10.0847513,6.05103233 10.5903173,5.65013408 11.2031112,5.47102713 C11.4663069,5.39444636 11.7529863,5.35385437 12.0551739,5.34925115 C12.7579151,5.34381099 13.3676073,5.44047852 13.9223564,5.66017746 C14.4257069,5.86062658 14.916651,6.17113442 15.4248756,6.61053229 L16.2756089,7.34620988 L17.8330713,5.7388506 L16.9814518,5.00275454 C16.2627593,4.38090193 15.5759693,3.95112896 14.8196142,3.65150145 C13.9622345,3.31128195 13.0468099,3.14724008 12.0197266,3.16858226 C11.491563,3.17695174 10.9886555,3.24934778 10.5256262,3.38451493 C9.32972545,3.73268544 8.3598008,4.48552047 7.72130768,5.56099908 C7.1997904,6.43937636 6.92241588,7.51359955 6.94058258,8.58614884 C6.94988748,9.11635561 7.03274536,9.63693748 7.18118061,10.0926558 C7.27777429,10.3876801 7.41779083,10.7103237 7.59679931,11.0513802 L7.79175904,11.4234037 L6.45274016,11.4234037 L6.45274016,12.876346 L8.75104953,12.876346 L9.03462732,13.2772443 C10.0129707,14.6577905 10.0134138,14.66616 10.0187309,14.7724525 C10.0382268,15.2202198 9.26857899,15.9935601 7.37392489,17.7837926 C6.9352655,18.1972451 6.48641503,18.6207409 5.90596674,19.2082786 L6.80987094,21.1667378 L18.6040484,21.1667378 L18.6040484,18.975607 L9.39574591,18.975607 L9.84725492,18.537883 Z" id="Path"></path>
        </g>
    </g>
</svg>