<svg width="20" height="20" viewBox="0 0 20 20" xmlns="http://www.w3.org/2000/svg"><path d="M0 9.603C0 4.303 4.297 0 9.603 0c5.3 0 9.603 4.297 9.603 9.603 0 5.3-4.298 9.603-9.603 9.603-5.3 0-9.603-4.298-9.603-9.603zm14.16-2.817c-1.458-.092-2.299-.99-2.478-2.5l.006.006H9.931v6.348c.265 3.387-2.915 2.874-3.162 1.14-.127-.904.328-1.422 1.14-1.693.271-.092.565-.162.841-.208V8.088c-3.64.127-4.337 3.393-3.203 5.248 1.763 2.886 6.158 1.63 6.158-2.402V7.765c.865.519 1.608.795 2.454.715V6.786z" fill="#fafafa"/></svg>
